<svg id="Layer_1" data-name="Layer 1" xmlns="http://www.w3.org/2000/svg" viewBox="0 0 300 450"><defs><style>.cls-1{fill:#e5e5e5;}.cls-2{fill:#bdbdbd;}.cls-3{fill:#b3b3b3;}.cls-4,.cls-5{fill:gray;}.cls-5{font-size:22.64px;font-family:Poppins-Regular, Poppins;}</style></defs><title>no-image</title><rect class="cls-1" width="300" height="450"/><rect class="cls-2" x="69.23" y="132.18" width="161.54" height="116.97"/><path class="cls-3" d="M69.23,200c4.46-.21,14.21-8.1,65.92,7,61.13,17.8,95.48-9.42,95.62-10.68v23.68H69.23Z"/><circle class="cls-4" cx="199.67" cy="163.28" r="17.64"/><rect class="cls-3" x="69.23" y="219.91" width="161.54" height="29.24"/><polygon class="cls-4" points="177.85 249.15 69.23 249.15 69.23 232.12 76.17 225.01 88.61 212.25 98.73 223.37 117.39 196.23 137.14 225.01 142.92 233.41 148.58 226.08 154.27 238.29 161.42 225.01 164.81 218.75 167.5 225.01 177.85 249.15"/><path class="cls-4" d="M192.24,222.69"/><text class="cls-5" transform="translate(69.23 277.69)">Replica image<tspan x="25.96" y="27.17">not found</tspan></text></svg>