<svg id="Layer_1" data-name="Layer 1" xmlns="http://www.w3.org/2000/svg" viewBox="0 0 80 60.8"><defs><style>.cls-1{fill:#fcd7d2;}.cls-2{fill:#fac1c0;}.cls-3{fill:#86d0ce;}.cls-4{fill:#71c9ba;}.cls-5{fill:#5d9b96;}</style></defs><title>art</title><rect class="cls-1" width="69.6" height="25.2"/><rect class="cls-2" y="25.2" width="69.6" height="25.2"/><rect class="cls-3" x="10.4" y="10.4" width="69.6" height="50.4"/><path class="cls-4" d="M10.4,39.6c1.92-.09,6.12-3.49,28.4,3C65.14,50.27,79.94,38.54,80,38V48.2H10.4Z"/><circle class="cls-5" cx="66.6" cy="23.8" r="7.6"/><rect class="cls-4" x="10.4" y="48.2" width="69.6" height="12.6"/><polygon class="cls-5" points="57.2 60.8 10.4 60.8 10.4 53.46 13.39 50.4 18.75 44.9 23.11 49.69 31.15 38 39.66 50.4 42.15 54.02 44.59 50.86 47.04 56.12 50.12 50.4 51.58 47.7 52.74 50.4 57.2 60.8"/><path class="cls-5" d="M63.4,49.4"/></svg>