<svg id="Layer_1" data-name="Layer 1" xmlns="http://www.w3.org/2000/svg" viewBox="0 0 35.46 48.93"><defs><style>.cls-1{fill:#fff;}</style></defs><title>call</title><path class="cls-1" d="M38.69,20.47,27.93,41.86A13.35,13.35,0,0,1,10,47.78l-1-.49L15.3,34.86c5.34,2.68,15.58-17.67,10.25-20.35L31.8,2.07l1,.48A13.35,13.35,0,0,1,38.69,20.47Z" transform="translate(-4.66 -0.28)"/><path class="cls-1" d="M25.57,0H29a0,0,0,0,1,0,0V13.93a0,0,0,0,1,0,0H25.57a2.43,2.43,0,0,1-2.43-2.43V2.45A2.43,2.43,0,0,1,25.57,0Z" transform="translate(1.26 -11.25) rotate(26.71)"/><path class="cls-1" d="M9.07,32.8h3.41a0,0,0,0,1,0,0V46.72a0,0,0,0,1,0,0H9.07a2.43,2.43,0,0,1-2.43-2.43V35.23A2.43,2.43,0,0,1,9.07,32.8Z" transform="translate(14.24 -0.33) rotate(26.71)"/></svg>