<?xml version="1.0" encoding="utf-8"?>
<!-- Generator: Adobe Illustrator 23.0.1, SVG Export Plug-In . SVG Version: 6.00 Build 0)  -->
<svg version="1.1" id="Layer_1" xmlns="http://www.w3.org/2000/svg" xmlns:xlink="http://www.w3.org/1999/xlink" x="0px" y="0px"
	 viewBox="0 0 161.1 37.5" style="enable-background:new 0 0 161.1 37.5;" xml:space="preserve">
<style type="text/css">
	.st0{fill:#5D08A0;}
	.st1{font-family:'Early-GameBoy';}
	.st2{font-size:16.5787px;}
	.st3{font-size:6px;}
</style>
<g>
	<path class="st0" d="M27,8.9h-3.3V5.6H27V8.9 M43.5,8.9h3.3V5.6h-3.3V8.9 M53.4,18.8v9.9h-3.3V22h-3.3v6.6h-3.3v-3.3H27v3.3h-3.3
		V22h-3.3v6.6h-3.3v-9.9h3.3v-3.3h3.3v-3.3H27V8.9h3.3v3.3h9.9V8.9h3.3v3.3h3.3v3.3h3.3v3.3H53.4 M40.2,15.5v3.3h3.3v-3.3H40.2
		 M27,18.8h3.3v-3.3H27V18.8 M33.6,28.6H27v3.3h6.6V28.6 M43.5,28.6h-6.6v3.3h6.6V28.6z"/>
	<text transform="matrix(1 0 0 1 60.6234 18.1372)" class="st0 st1 st2">IPOSE</text>
	<text transform="matrix(1 0 0 1 63.2521 25.4073)"><tspan x="0" y="0" class="st0 st1 st3">CHALLENGEWEEK</tspan><tspan x="0" y="7.2" class="st0 st1 st3">2021</tspan></text>
</g>
</svg>
