<svg id="Layer_1" data-name="Layer 1" xmlns="http://www.w3.org/2000/svg" viewBox="0 0 45 12"><defs><style>.cls-1{fill:#fff;}</style></defs><title>take</title><path class="cls-1" d="M10.1,18.86v3H6.91v9H3.15v-9H0v-3Z" transform="translate(0 -18.86)"/><path class="cls-1" d="M18.81,29h-4l-.59,1.81h-4l4.39-12H19l4.37,12h-4Zm-.92-2.83-1.08-3.34-1.09,3.34Z" transform="translate(0 -18.86)"/><path class="cls-1" d="M31.55,24.69,36,30.85H31.46L28,25.65v5.2H24.21v-12H28v5.06l3.53-5.06H36Z" transform="translate(0 -18.86)"/><path class="cls-1" d="M40.76,21.84v1.49h3.73v2.83H40.76v1.69H45v3H37v-12h8v3Z" transform="translate(0 -18.86)"/></svg>