<svg id="Layer_1" data-name="Layer 1" xmlns="http://www.w3.org/2000/svg" viewBox="0 0 53.49 60"><defs><style>.cls-1{fill:#fff;}</style></defs><title>thumb</title><path class="cls-1" d="M48.6,60H11.4a6.19,6.19,0,0,1-6.1-5.13L.72,28.63a5.21,5.21,0,0,1,5.21-6.27H54.11V54.49A5.51,5.51,0,0,1,48.6,60Z" transform="translate(-0.62)"/><path class="cls-1" d="M23.13,21.3h35A17.26,17.26,0,0,1,75.41,38.56v0a0,0,0,0,1,0,0H23.13A7.59,7.59,0,0,1,15.55,31V28.89a7.59,7.59,0,0,1,7.59-7.59Z" transform="translate(74.79 -15.55) rotate(90)"/></svg>